<svg width="211" height="212" xmlns="http://www.w3.org/2000/svg">
 <!-- Created with Method Draw - http://github.com/duopixel/Method-Draw/ -->

 <g>
  <title>background</title>
 </g>
 <g>
  <title>Layer 1</title>
  <g stroke="null" id="svg_9">
   <g stroke="null" transform="matrix(1.5348142858626046,0,0,1.4020619296519286,-70.51008679802459,-57.254878134153884) " id="svg_4">
    <g stroke="null" id="svg_5" fill="#4aa3df">
     <svg stroke="null" stroke-width="99" id="svg_6" viewBox="0 0 100 100" y="0px" x="0px">
      <g stroke="null" id="svg_7">
       <path stroke="null" stroke-width="99" id="svg_8" fill="#4aa3df" d="m58.44396,25.532697a1.0001,1.0001 0 0 0 -0.125,0.031l-22.9688,0c-2.2109,0 -4.0312,1.78894 -4.0312,4.00004l0,48.43748c0,2.2123 1.8203,4 4.0312,4l3,0l0,0.5625c0,1.1048 0.8952,2 2,2l36.4375,0c1.1048,0 2,-0.8952 2,-2l0,-13.25c0,-1.1048 -0.8952,-2 -2,-2l-2.625,0l0,-26.74998a1.0001,1.0001 0 0 0 -0.031,-0.2187a1.0001,1.0001 0 0 0 0,-0.031a1.0001,1.0001 0 0 0 -0.031,-0.062a1.0001,1.0001 0 0 0 0,-0.031a1.0001,1.0001 0 0 0 -0.031,-0.063a1.0001,1.0001 0 0 0 -0.031,-0.031a1.0001,1.0001 0 0 0 0,-0.031a1.0001,1.0001 0 0 0 -0.031,-0.031a1.0001,1.0001 0 0 0 -0.031,-0.062a1.0001,1.0001 0 0 0 -0.031,-0.031a1.0001,1.0001 0 0 0 -0.031,-0.063a1.0001,1.0001 0 0 0 -0.031,-0.031a1.0001,1.0001 0 0 0 -0.031,-0.031l-14.5625,-14.03134a1.0001,1.0001 0 0 0 -0.094,-0.062a1.0001,1.0001 0 0 0 -0.063,-0.031a1.0001,1.0001 0 0 0 -0.5937,-0.1876a1.0001,1.0001 0 0 0 -0.094,0l-0.0015,-0.0024zm-23.0938,2.03134l22.2188,0l0,9.9687c0,2.2117 1.8207,4.0313 4.0312,4.0313l10.5625,0l0,25.74998l-31.8125,0c-1.1048,0 -2,0.8952 -2,2l0,10.6875l-3,0c-1.1291,0 -2.0312,-0.8681 -2.0312,-2l0,-48.43748c0,-1.1292 0.9021,-2 2.0312,-2zm24.2188,1.3437l10.375,9.9376l0.75,0.7187l-9.0938,0c-1.1295,0 -2.0312,-0.9007 -2.0312,-2.0313l0,-8.625zm-22.8126,14.9376a1.00984,1.00984 0 0 0 0.2813,2l31.5313,0a1.0001,1.0001 0 1 0 0,-2l-31.5313,0a1.0001,1.0001 0 0 0 -0.1875,0a1.00438,1.00438 0 0 0 -0.094,0l0.0002,0zm0,5.90618a1.00984,1.00984 0 0 0 0.2813,2l31.5313,0a1.0001,1.0001 0 1 0 0,-2l-31.5313,0a1.0001,1.0001 0 0 0 -0.1875,0a1.00438,1.00438 0 0 0 -0.094,0l0.0002,0zm0,5.9062a1.00984,1.00984 0 0 0 0.2813,2l31.5313,0a1.0001,1.0001 0 1 0 0,-2l-31.5313,0a1.0001,1.0001 0 0 0 -0.1875,0a1.00438,1.00438 0 0 0 -0.094,0l0.0002,0zm0.1876,5.875a1.0011,1.0011 0 0 0 0.094,2l16.9687,0a1.0001,1.0001 0 1 0 0,-2l-16.9687,0a1.0001,1.0001 0 0 0 -0.094,0zm13.2812,10.4688c0.9403,0 1.6941,0.2877 2.2812,0.8438c0.3496,0.3285 0.6066,0.791 0.7813,1.4062l-1.5313,0.375c-0.091,-0.3985 -0.274,-0.7068 -0.5624,-0.9375c-0.2885,-0.2307 -0.65,-0.375 -1.0626,-0.375c-0.5698,0 -1.0201,0.216 -1.375,0.625c-0.3548,0.409 -0.5312,1.0842 -0.5312,2c0,0.9718 0.1504,1.65 0.5,2.0625c0.3495,0.4125 0.8157,0.625 1.375,0.625c0.4124,0 0.7653,-0.1444 1.0625,-0.4062c0.2971,-0.2625 0.5269,-0.656 0.6563,-1.2188l1.5,0.4688c-0.2308,0.8387 -0.6197,1.4675 -1.1563,1.875c-0.5366,0.4072 -1.2064,0.5937 -2.0313,0.5937c-1.0207,0 -1.8741,-0.3338 -2.5312,-1.0313c-0.6572,-0.6974 -1,-1.6655 -1,-2.875c0,-1.2791 0.3393,-2.2608 1,-2.9687c0.6607,-0.7079 1.5483,-1.0625 2.625,-1.0625zm7.125,0c0.9648,0 1.6686,0.202 2.1562,0.625c0.4877,0.4229 0.7569,0.9814 0.7813,1.6875l-1.5625,0.094c-0.066,-0.3948 -0.1878,-0.7019 -0.4062,-0.875c-0.2185,-0.1729 -0.5631,-0.2498 -1,-0.25c-0.4509,0.0002 -0.8074,0.096 -1.0626,0.2813c-0.1643,0.1189 -0.25,0.2695 -0.25,0.4687c0,0.182 0.096,0.3394 0.25,0.4688c0.1959,0.1643 0.6513,0.3529 1.4063,0.5312c0.7551,0.1785 1.3257,0.3408 1.6875,0.5313c0.3618,0.1905 0.6393,0.4506 0.8438,0.7813c0.2044,0.3303 0.3124,0.764 0.3124,1.25c0,0.4402 -0.1302,0.8342 -0.375,1.2187c-0.2447,0.3846 -0.5837,0.688 -1.0312,0.875c-0.4474,0.187 -1.0199,0.2813 -1.6875,0.2813c-0.9718,0 -1.6979,-0.2382 -2.2187,-0.6876c-0.521,-0.4492 -0.8362,-1.1088 -0.9376,-1.9687l1.5,-0.1563c0.091,0.5071 0.2846,0.8875 0.5626,1.125c0.2779,0.2378 0.653,0.375 1.125,0.375c0.4998,0 0.8715,-0.1322 1.125,-0.3437c0.2533,-0.2115 0.375,-0.4356 0.375,-0.7187c0,-0.182 -0.049,-0.3412 -0.1563,-0.4688c-0.1066,-0.1276 -0.2969,-0.2494 -0.5625,-0.3438c-0.1818,-0.063 -0.572,-0.1829 -1.2188,-0.3437c-0.832,-0.2063 -1.4456,-0.4494 -1.7812,-0.75c-0.4719,-0.423 -0.6875,-0.9228 -0.6875,-1.5313c0,-0.3913 0.091,-0.7842 0.3125,-1.125c0.222,-0.3405 0.5511,-0.5715 0.9688,-0.75c0.4178,-0.1781 0.9405,-0.2812 1.5312,-0.2812l0,-0.0003zm3.6875,0.125l1.6875,0l1.9375,5.6875l1.875,-5.6875l1.6563,0l-2.75,7.6875l-1.6563,0l-2.75,-7.6875zm-17.125,6.2188l1.4687,0l0,1.4687l-1.4687,0l0,-1.4687z"/>
      </g>
     </svg>
    </g>
   </g>
  </g>
 </g>
</svg>