<svg xmlns="http://www.w3.org/2000/svg" xmlns:xlink="http://www.w3.org/1999/xlink" width="100" height="100" viewBox="0 0 100 100"><g><g transform="translate(50 50) scale(0.69 0.69) rotate(0) translate(-50 -50)" style="fill:#4aa3df"><svg fill="#4aa3df" xmlns:dc="http://purl.org/dc/elements/1.1/" xmlns:cc="http://creativecommons.org/ns#" xmlns:rdf="http://www.w3.org/1999/02/22-rdf-syntax-ns#" xmlns:svg="http://www.w3.org/2000/svg" xmlns="http://www.w3.org/2000/svg" xmlns:sodipodi="http://sodipodi.sourceforge.net/DTD/sodipodi-0.dtd" xmlns:inkscape="http://www.inkscape.org/namespaces/inkscape" version="1.1" x="0px" y="0px" viewBox="0 0 100 100"><g transform="translate(0,-952.36218)"><path d="m 58.443963,977.89488 a 1.0001,1.0001 0 0 0 -0.125,0.031 l -22.9688,0 c -2.2109,0 -4.0312,1.78894 -4.0312,4.00004 l 0,48.43748 c 0,2.2123 1.8203,4 4.0312,4 l 3,0 0,0.5625 c 0,1.1048 0.8952,2 2,2 l 36.4375,0 c 1.1048,0 2,-0.8952 2,-2 l 0,-13.25 c 0,-1.1048 -0.8952,-2 -2,-2 l -2.625,0 0,-26.74998 a 1.0001,1.0001 0 0 0 -0.031,-0.2187 1.0001,1.0001 0 0 0 0,-0.031 1.0001,1.0001 0 0 0 -0.031,-0.062 1.0001,1.0001 0 0 0 0,-0.031 1.0001,1.0001 0 0 0 -0.031,-0.063 1.0001,1.0001 0 0 0 -0.031,-0.031 1.0001,1.0001 0 0 0 0,-0.031 1.0001,1.0001 0 0 0 -0.031,-0.031 1.0001,1.0001 0 0 0 -0.031,-0.062 1.0001,1.0001 0 0 0 -0.031,-0.031 1.0001,1.0001 0 0 0 -0.031,-0.063 1.0001,1.0001 0 0 0 -0.031,-0.031 1.0001,1.0001 0 0 0 -0.031,-0.031 l -14.5625,-14.03134 a 1.0001,1.0001 0 0 0 -0.094,-0.062 1.0001,1.0001 0 0 0 -0.063,-0.031 1.0001,1.0001 0 0 0 -0.5937,-0.1876 1.0001,1.0001 0 0 0 -0.094,0 z m -23.0938,2.03134 22.2188,0 0,9.9687 c 0,2.2117 1.8207,4.0313 4.0312,4.0313 l 10.5625,0 0,25.74998 -31.8125,0 c -1.1048,0 -2,0.8952 -2,2 l 0,10.6875 -3,0 c -1.1291,0 -2.0312,-0.8681 -2.0312,-2 l 0,-48.43748 c 0,-1.1292 0.9021,-2 2.0312,-2 z m 24.2188,1.3437 10.375,9.9376 0.75,0.7187 -9.0938,0 c -1.1295,0 -2.0312,-0.9007 -2.0312,-2.0313 l 0,-8.625 z m -22.8126,14.9376 a 1.0098428,1.0098428 0 0 0 0.2813,2 l 31.5313,0 a 1.0001,1.0001 0 1 0 0,-2 l -31.5313,0 a 1.0001,1.0001 0 0 0 -0.1875,0 1.0043849,1.0043849 0 0 0 -0.094,0 z m 0,5.90618 a 1.0098428,1.0098428 0 0 0 0.2813,2 l 31.5313,0 a 1.0001,1.0001 0 1 0 0,-2 l -31.5313,0 a 1.0001,1.0001 0 0 0 -0.1875,0 1.0043849,1.0043849 0 0 0 -0.094,0 z m 0,5.9062 a 1.0098428,1.0098428 0 0 0 0.2813,2 l 31.5313,0 a 1.0001,1.0001 0 1 0 0,-2 l -31.5313,0 a 1.0001,1.0001 0 0 0 -0.1875,0 1.0043849,1.0043849 0 0 0 -0.094,0 z m 0.1876,5.875 a 1.0011039,1.0011039 0 0 0 0.094,2 l 16.9687,0 a 1.0001,1.0001 0 1 0 0,-2 l -16.9687,0 a 1.0001,1.0001 0 0 0 -0.094,0 z m 13.2812,10.4688 c 0.9403,0 1.6941,0.2877 2.2812,0.8438 0.3496,0.3285 0.6066,0.791 0.7813,1.4062 l -1.5313,0.375 c -0.091,-0.3985 -0.274,-0.7068 -0.5624,-0.9375 -0.2885,-0.2307 -0.65,-0.375 -1.0626,-0.375 -0.5698,0 -1.0201,0.216 -1.375,0.625 -0.3548,0.409 -0.5312,1.0842 -0.5312,2 0,0.9718 0.1504,1.65 0.5,2.0625 0.3495,0.4125 0.8157,0.625 1.375,0.625 0.4124,0 0.7653,-0.1444 1.0625,-0.4062 0.2971,-0.2625 0.5269,-0.656 0.6563,-1.2188 l 1.5,0.4688 c -0.2308,0.8387 -0.6197,1.4675 -1.1563,1.875 -0.5366,0.4072 -1.2064,0.5937 -2.0313,0.5937 -1.0207,0 -1.8741,-0.3338 -2.5312,-1.0313 -0.6572,-0.6974 -1,-1.6655 -1,-2.875 0,-1.2791 0.3393,-2.2608 1,-2.9687 0.6607,-0.7079 1.5483,-1.0625 2.625,-1.0625 z m 7.125,0 c 0.9648,0 1.6686,0.202 2.1562,0.625 0.4877,0.4229 0.7569,0.9814 0.7813,1.6875 l -1.5625,0.094 c -0.066,-0.3948 -0.1878,-0.7019 -0.4062,-0.875 -0.2185,-0.1729 -0.5631,-0.2498 -1,-0.25 -0.4509,2e-4 -0.8074,0.096 -1.0626,0.2813 -0.1643,0.1189 -0.25,0.2695 -0.25,0.4687 0,0.182 0.096,0.3394 0.25,0.4688 0.1959,0.1643 0.6513,0.3529 1.4063,0.5312 0.7551,0.1785 1.3257,0.3408 1.6875,0.5313 0.3618,0.1905 0.6393,0.4506 0.8438,0.7813 0.2044,0.3303 0.3124,0.764 0.3124,1.25 0,0.4402 -0.1302,0.8342 -0.375,1.2187 -0.2447,0.3846 -0.5837,0.688 -1.0312,0.875 -0.4474,0.187 -1.0199,0.2813 -1.6875,0.2813 -0.9718,0 -1.6979,-0.2382 -2.2187,-0.6876 -0.521,-0.4492 -0.8362,-1.1088 -0.9376,-1.9687 l 1.5,-0.1563 c 0.091,0.5071 0.2846,0.8875 0.5626,1.125 0.2779,0.2378 0.653,0.375 1.125,0.375 0.4998,0 0.8715,-0.1322 1.125,-0.3437 0.2533,-0.2115 0.375,-0.4356 0.375,-0.7187 0,-0.182 -0.049,-0.3412 -0.1563,-0.4688 -0.1066,-0.1276 -0.2969,-0.2494 -0.5625,-0.3438 -0.1818,-0.063 -0.572,-0.1829 -1.2188,-0.3437 -0.832,-0.2063 -1.4456,-0.4494 -1.7812,-0.75 -0.4719,-0.423 -0.6875,-0.9228 -0.6875,-1.5313 0,-0.3913 0.091,-0.7842 0.3125,-1.125 0.222,-0.3405 0.5511,-0.5715 0.9688,-0.75 0.4178,-0.1781 0.9405,-0.2812 1.5312,-0.2812 z m 3.6875,0.125 1.6875,0 1.9375,5.6875 1.875,-5.6875 1.6563,0 -2.75,7.6875 -1.6563,0 -2.75,-7.6875 z m -17.125,6.2188 1.4687,0 0,1.4687 -1.4687,0 0,-1.4687 z" style="text-indent:0;text-transform:none;direction:ltr;block-progression:tb;baseline-shift:baseline;color:#000000;enable-background:accumulate;" fill="#4aa3df" fill-opacity="1" stroke="none" marker="none" visibility="visible" display="inline" overflow="visible"></path></g></svg></g></g></svg>